<svg width="37" height="35" viewBox="0 0 37 35" fill="none" xmlns="http://www.w3.org/2000/svg">
<path d="M36.1663 25.3393C35.2935 23.9369 33.6062 23.0425 30.2447 21.2607C29.4952 20.8634 28.6456 20.4129 27.7068 19.9048C27.5624 19.8266 27.3846 19.8466 27.2612 19.9555L21.4986 25.0236L15.7186 19.9556C15.595 19.8471 15.4177 19.8272 15.2734 19.9052C14.2841 20.4406 13.3967 20.9097 12.6136 21.3237C9.30523 23.0723 7.64456 23.9502 6.78533 25.3386C6.71678 25.4494 6.65427 25.5631 6.59648 25.6794C3.1566 24.4805 0.787239 21.1746 0.787239 17.5003C0.787239 12.7257 4.66824 8.84119 9.43863 8.84119C11.1498 8.84119 12.7974 9.33948 14.2142 10.281C15.1563 13.8274 17.666 17.8963 21.6353 17.8963C26.7853 17.8963 29.4793 11.0482 29.4793 7.37718C29.4793 3.30936 25.9605 0 21.6353 0C17.3106 0 13.7923 3.30936 13.7923 7.37718C13.7923 7.92836 13.8535 8.55145 13.9741 9.21189C12.5896 8.44988 11.0395 8.04945 9.43863 8.04945C4.23409 8.04945 0 12.2891 0 17.5004C0 19.5806 0.662067 21.5537 1.91471 23.2068C3.03025 24.679 4.57776 25.805 6.30858 26.4163C5.93281 27.6785 5.95104 29.3539 5.9812 32.0561C5.9896 32.8092 5.99909 33.663 6.00094 34.6049C6.00136 34.8232 6.17744 35 6.3946 35H36.5737C36.7909 35 36.967 34.8232 36.9674 34.6049C36.9691 33.6852 36.9781 32.8483 36.9862 32.1102C37.0246 28.5411 37.0439 26.7495 36.1663 25.3393ZM7.11027 26.497C7.1101 26.4975 7.11002 26.4979 7.10985 26.4983C7.11002 26.4978 7.1101 26.4974 7.11027 26.497ZM7.03525 26.7447C7.03004 26.7636 7.025 26.7827 7.02004 26.8019C7.02508 26.7828 7.03004 26.7636 7.03525 26.7447ZM7.00081 26.8786C6.9961 26.898 6.99131 26.9172 6.98678 26.9368C6.99131 26.9172 6.9961 26.8979 7.00081 26.8786ZM7.26216 26.2101C7.26333 26.1925 7.26249 26.1753 7.2614 26.158C7.26266 26.1753 7.26308 26.1926 7.26216 26.2101ZM7.25779 26.1239C7.28501 26.0646 7.31382 26.0068 7.3439 25.9499C7.3139 26.0068 7.28501 26.0645 7.25779 26.1239ZM7.26014 26.2286C7.25779 26.251 7.25409 26.2735 7.24754 26.2959C7.24141 26.317 7.23359 26.337 7.22443 26.3562C7.23359 26.3369 7.24141 26.317 7.24754 26.2959C7.25409 26.2735 7.25762 26.251 7.26014 26.2286ZM7.19957 26.3989C7.1973 26.4023 7.19562 26.4062 7.19327 26.4096C7.19562 26.4061 7.19739 26.4023 7.19957 26.3989ZM6.82078 28.0582C6.81876 28.0819 6.81691 28.106 6.81498 28.1301C6.81683 28.1061 6.81868 28.0819 6.82078 28.0582ZM6.807 28.2339C6.80524 28.2587 6.80347 28.2838 6.80179 28.3089C6.80356 28.2838 6.80524 28.2587 6.807 28.2339ZM6.7949 28.419C6.79347 28.443 6.79196 28.4668 6.79062 28.4911C6.79205 28.4669 6.79347 28.443 6.7949 28.419ZM6.77382 28.8645C6.77298 28.8892 6.77214 28.9145 6.7713 28.9393C6.77214 28.9145 6.77289 28.8892 6.77382 28.8645ZM6.75475 30.5249C6.75483 30.5483 6.75483 30.5715 6.755 30.5952C6.75491 30.5715 6.75483 30.5483 6.75475 30.5249ZM6.7587 31.1116C6.75895 31.1408 6.7592 31.1702 6.75953 31.1996C6.75928 31.1703 6.75895 31.1407 6.7587 31.1116ZM6.76138 31.3869C6.76172 31.4201 6.76205 31.4532 6.76239 31.4867C6.76197 31.4533 6.76164 31.42 6.76138 31.3869ZM6.76441 31.6802C6.76466 31.7104 6.76508 31.7404 6.76533 31.7709C6.76508 31.7405 6.76474 31.7104 6.76441 31.6802Z" fill="#252525"/>
<path d="M7.28945 18.65C7.07944 18.3977 6.93529 18.0988 6.85969 17.7505L5 17.9515C5.14414 18.8021 5.4709 19.4625 5.98625 19.9288C6.50098 20.3953 7.13361 20.7061 7.95359 20.7981L7.96073 22L9.00054 21.9797L9.00384 20.749C9.93868 20.6148 10.6895 20.2814 11.2139 19.7416C11.739 19.2012 12 18.5384 12 17.7505C12 17.0453 11.7925 16.4673 11.375 16.0165C10.9603 15.5678 10.1768 15.1998 9.0274 14.9183V12.367C9.49116 12.55 9.77883 12.8985 9.89102 13.4115L11.7071 13.1973C11.5825 12.5435 11.2947 12.021 10.8453 11.6302C10.3939 11.2401 9.76241 11.0176 9.00116 10.9347L9.00054 10H7.95368L7.96144 10.9227C7.14611 10.9967 6.52044 11.2734 6.02999 11.7598C5.53954 12.2441 5.29284 12.8447 5.29284 13.5588C5.29284 14.2644 5.51008 14.8621 5.94457 15.3578C6.37638 15.8511 7.05748 16.2192 7.98759 16.4626V19.197C7.73117 19.0832 7.49955 18.9025 7.28945 18.65ZM9.02731 16.7442C9.45912 16.8582 9.76892 17.0186 9.9568 17.2303C10.1473 17.4403 10.2425 17.6927 10.2425 17.9825C10.2425 18.3106 10.1303 18.5946 9.90334 18.8356C9.67886 19.0766 9.38602 19.2329 9.02731 19.3038V16.7442ZM7.30186 14.1261C7.15253 13.9275 7.07944 13.7127 7.07944 13.483C7.07944 13.2306 7.15967 13.001 7.32337 12.791C7.48706 12.581 7.70689 12.432 7.98741 12.3402V14.6039C7.6802 14.4828 7.45064 14.3224 7.30186 14.1261Z" fill="#252525"/>
</svg>
